# xmcd
#
# Track frame offsets:
#	150
#	16459
#	35520
#	51808
#	68481
#	84159
#	103396
#	120425
#	135966
#	153301
#	168310
#	184739
#	200130
#	216144
#	237912
#
# Disc length: 3364 seconds
#
# Revision: 0
# Processed by: cddbd v1.5.2PL0 Copyright (c) Steve Scherf et al.
# Submitted via: audiograbber 1.83.01
#
DISCID=c40d220f
DTITLE=Various Artist - Chartbuster
DYEAR=1900
DGENRE=
TTITLE0=Deana Carter - Absence of the Heart
TTITLE1=Patty Loveless - Like Water into Wine
TTITLE2=Mark Chesnutt - Whereever you are
TTITLE3=Lari White - Take me
TTITLE4=Mary Chapin Carpenter - Grow Old with me
TTITLE5=John Michael Montgomery - Hold On to Me
TTITLE6=Sara Evans - No Place That far
TTITLE7=Bill Engvall - Im a Cowboy
TTITLE8=Jo Dee Messina - Stand Beside Me
TTITLE9=Vince Gill - Kindly Keep It Country
TTITLE10=Jenny Simpson - Ticket out of Kansas
TTITLE11=Mark Nesler - Slow Down
TTITLE12=Daryle Singletary - The Note
TTITLE13=Leann Rimes - Bridge Over Troubled Waters
TTITLE14=Shania Twain - Come on Over
EXTD=
EXTT0=
EXTT1=
EXTT2=
EXTT3=
EXTT4=
EXTT5=
EXTT6=
EXTT7=
EXTT8=
EXTT9=
EXTT10=
EXTT11=
EXTT12=
EXTT13=
EXTT14=
PLAYORDER=
